<svg width="440" height="345" viewBox="0 0 440 345" fill="none" xmlns="http://www.w3.org/2000/svg">
<rect y="132" width="439.102" height="96" rx="25" fill="#9600F1"/>
<path d="M84.6989 178.545C84.6989 181.445 84.1558 183.928 83.0696 185.995C81.9922 188.054 80.5206 189.631 78.6548 190.725C76.7978 191.82 74.6912 192.368 72.3349 192.368C69.9786 192.368 67.8675 191.82 66.0018 190.725C64.1448 189.622 62.6732 188.041 61.587 185.982C60.5096 183.915 59.9709 181.436 59.9709 178.545C59.9709 175.646 60.5096 173.167 61.587 171.109C62.6732 169.041 64.1448 167.46 66.0018 166.365C67.8675 165.27 69.9786 164.723 72.3349 164.723C74.6912 164.723 76.7978 165.27 78.6548 166.365C80.5206 167.46 81.9922 169.041 83.0696 171.109C84.1558 173.167 84.6989 175.646 84.6989 178.545ZM79.7979 178.545C79.7979 176.504 79.4782 174.783 78.8388 173.382C78.2081 171.971 77.3322 170.907 76.2109 170.189C75.0897 169.462 73.7977 169.098 72.3349 169.098C70.872 169.098 69.58 169.462 68.4588 170.189C67.3376 170.907 66.4573 171.971 65.8178 173.382C65.1871 174.783 64.8718 176.504 64.8718 178.545C64.8718 180.586 65.1871 182.312 65.8178 183.722C66.4573 185.124 67.3376 186.188 68.4588 186.915C69.58 187.633 70.872 187.993 72.3349 187.993C73.7977 187.993 75.0897 187.633 76.2109 186.915C77.3322 186.188 78.2081 185.124 78.8388 183.722C79.4782 182.312 79.7979 180.586 79.7979 178.545ZM105.272 164.355L106.927 167.43C106.34 167.938 105.683 168.306 104.956 168.533C104.229 168.761 103.375 168.91 102.394 168.98C101.422 169.041 100.266 169.085 98.9253 169.112C97.4187 169.147 96.188 169.431 95.2332 169.966C94.2784 170.5 93.547 171.31 93.039 172.396C92.5309 173.474 92.1981 174.849 92.0404 176.522H92.2638C92.8944 175.287 93.7791 174.345 94.9179 173.697C96.0566 173.049 97.3924 172.725 98.9253 172.725C100.598 172.725 102.074 173.101 103.353 173.855C104.641 174.599 105.644 175.681 106.362 177.1C107.089 178.519 107.453 180.236 107.453 182.251C107.453 184.327 107.063 186.127 106.283 187.651C105.504 189.166 104.396 190.336 102.959 191.159C101.531 191.982 99.8363 192.394 97.8742 192.394C95.9208 192.394 94.2215 191.969 92.7762 191.12C91.3396 190.261 90.2272 188.996 89.4388 187.322C88.6592 185.641 88.2694 183.569 88.2694 181.108V179.294C88.2694 174.547 89.1541 171.004 90.9236 168.665C92.693 166.326 95.3164 165.135 98.7939 165.091C99.8276 165.073 100.752 165.069 101.566 165.078C102.39 165.087 103.108 165.047 103.721 164.96C104.334 164.872 104.851 164.67 105.272 164.355ZM97.9005 188.584C98.8728 188.584 99.7137 188.334 100.423 187.835C101.133 187.327 101.676 186.609 102.052 185.68C102.438 184.752 102.631 183.652 102.631 182.382C102.631 181.129 102.438 180.065 102.052 179.189C101.667 178.305 101.12 177.63 100.41 177.166C99.7006 176.702 98.8553 176.469 97.8742 176.469C97.1384 176.469 96.4771 176.601 95.8902 176.864C95.3033 177.126 94.804 177.512 94.3923 178.02C93.9806 178.528 93.6653 179.145 93.4463 179.873C93.2273 180.6 93.109 181.436 93.0915 182.382C93.0915 184.283 93.5207 185.794 94.3792 186.915C95.2376 188.028 96.4114 188.584 97.9005 188.584ZM141.812 188.098L141.418 197.781H136.937V192H134.559V188.098H141.812ZM111.5 171.818H116.085V188.085H122.431V171.818H127.017V188.085H133.363V171.818H137.949V192H111.5V171.818ZM154.291 192.394C152.267 192.394 150.52 191.974 149.048 191.133C147.585 190.283 146.46 189.083 145.671 187.533C144.883 185.973 144.489 184.138 144.489 182.027C144.489 179.951 144.883 178.129 145.671 176.561C146.468 174.985 147.581 173.758 149.009 172.882C150.436 171.998 152.114 171.555 154.041 171.555C155.285 171.555 156.459 171.757 157.562 172.16C158.675 172.554 159.656 173.167 160.506 173.999C161.364 174.831 162.038 175.891 162.529 177.179C163.019 178.458 163.265 179.982 163.265 181.751V183.21H146.722V180.004H158.705C158.697 179.093 158.5 178.283 158.114 177.573C157.729 176.855 157.19 176.29 156.498 175.878C155.815 175.467 155.018 175.261 154.107 175.261C153.134 175.261 152.28 175.497 151.545 175.97C150.809 176.434 150.235 177.048 149.823 177.81C149.42 178.563 149.215 179.391 149.206 180.293V183.092C149.206 184.265 149.42 185.273 149.85 186.114C150.279 186.946 150.879 187.585 151.65 188.032C152.421 188.47 153.323 188.689 154.356 188.689C155.048 188.689 155.675 188.593 156.235 188.4C156.796 188.198 157.282 187.905 157.694 187.52C158.105 187.134 158.416 186.657 158.627 186.087L163.068 186.587C162.787 187.76 162.253 188.785 161.465 189.661C160.685 190.528 159.686 191.203 158.469 191.685C157.251 192.158 155.859 192.394 154.291 192.394ZM176.092 192.394C174.077 192.394 172.347 191.952 170.902 191.067C169.465 190.182 168.357 188.96 167.578 187.401C166.807 185.833 166.421 184.029 166.421 181.988C166.421 179.938 166.816 178.129 167.604 176.561C168.392 174.985 169.505 173.758 170.941 172.882C172.387 171.998 174.095 171.555 176.066 171.555C177.704 171.555 179.153 171.858 180.415 172.462C181.685 173.058 182.697 173.903 183.45 174.998C184.203 176.084 184.632 177.354 184.737 178.808H180.191C180.007 177.836 179.569 177.026 178.877 176.377C178.194 175.721 177.279 175.392 176.131 175.392C175.159 175.392 174.305 175.655 173.569 176.18C172.833 176.697 172.26 177.442 171.848 178.414C171.445 179.386 171.244 180.551 171.244 181.909C171.244 183.284 171.445 184.467 171.848 185.457C172.251 186.438 172.816 187.195 173.543 187.73C174.279 188.255 175.141 188.518 176.131 188.518C176.832 188.518 177.458 188.387 178.01 188.124C178.571 187.852 179.039 187.463 179.416 186.955C179.793 186.446 180.051 185.829 180.191 185.102H184.737C184.624 186.53 184.203 187.795 183.476 188.899C182.749 189.994 181.759 190.853 180.507 191.474C179.254 192.088 177.782 192.394 176.092 192.394ZM187.178 175.721V171.818H204.837V175.721H198.307V192H193.708V175.721H187.178ZM208.625 192V171.818H217.099C219.491 171.818 221.378 172.296 222.762 173.25C224.155 174.205 224.851 175.537 224.851 177.245C224.851 178.375 224.457 179.299 223.669 180.017C222.889 180.727 221.825 181.204 220.476 181.449C221.536 181.537 222.465 181.804 223.262 182.251C224.068 182.697 224.698 183.284 225.154 184.011C225.609 184.738 225.837 185.575 225.837 186.521C225.837 187.633 225.543 188.601 224.957 189.425C224.378 190.239 223.533 190.874 222.421 191.33C221.317 191.777 219.977 192 218.4 192H208.625ZM213.079 188.255H218.4C219.276 188.255 219.964 188.049 220.463 187.638C220.962 187.217 221.212 186.648 221.212 185.93C221.212 185.098 220.962 184.445 220.463 183.972C219.964 183.49 219.276 183.249 218.4 183.249H213.079V188.255ZM213.079 180.175H217.191C217.84 180.175 218.396 180.083 218.86 179.899C219.324 179.706 219.679 179.439 219.924 179.097C220.17 178.747 220.292 178.331 220.292 177.849C220.292 177.157 220.007 176.614 219.438 176.22C218.878 175.826 218.098 175.629 217.099 175.629H213.079V180.175ZM238.566 192.394C236.595 192.394 234.887 191.961 233.441 191.093C231.996 190.226 230.875 189.013 230.078 187.454C229.289 185.895 228.895 184.073 228.895 181.988C228.895 179.903 229.289 178.077 230.078 176.509C230.875 174.941 231.996 173.723 233.441 172.856C234.887 171.989 236.595 171.555 238.566 171.555C240.536 171.555 242.244 171.989 243.69 172.856C245.135 173.723 246.252 174.941 247.04 176.509C247.837 178.077 248.236 179.903 248.236 181.988C248.236 184.073 247.837 185.895 247.04 187.454C246.252 189.013 245.135 190.226 243.69 191.093C242.244 191.961 240.536 192.394 238.566 192.394ZM238.592 188.584C239.66 188.584 240.554 188.29 241.272 187.703C241.99 187.108 242.525 186.311 242.875 185.312C243.234 184.314 243.414 183.201 243.414 181.975C243.414 180.74 243.234 179.623 242.875 178.624C242.525 177.617 241.99 176.815 241.272 176.22C240.554 175.624 239.66 175.326 238.592 175.326C237.497 175.326 236.586 175.624 235.859 176.22C235.141 176.815 234.602 177.617 234.243 178.624C233.892 179.623 233.717 180.74 233.717 181.975C233.717 183.201 233.892 184.314 234.243 185.312C234.602 186.311 235.141 187.108 235.859 187.703C236.586 188.29 237.497 188.584 238.592 188.584ZM251.156 186.468H255.873C255.917 187.222 256.254 187.804 256.885 188.216C257.516 188.628 258.335 188.833 259.342 188.833C260.367 188.833 261.23 188.61 261.93 188.163C262.64 187.708 262.995 187.02 262.995 186.1C262.995 185.557 262.859 185.08 262.587 184.668C262.316 184.248 261.935 183.924 261.444 183.696C260.954 183.468 260.376 183.354 259.71 183.354H256.622V179.978H259.71C260.7 179.978 261.449 179.75 261.957 179.294C262.473 178.839 262.732 178.265 262.732 177.573C262.732 176.829 262.46 176.224 261.917 175.76C261.383 175.296 260.643 175.064 259.697 175.064C258.751 175.064 257.962 175.278 257.332 175.707C256.71 176.137 256.386 176.688 256.359 177.363H251.669C251.686 176.189 252.036 175.169 252.72 174.301C253.412 173.434 254.34 172.76 255.505 172.278C256.679 171.796 258.002 171.555 259.473 171.555C261.05 171.555 262.412 171.792 263.56 172.265C264.707 172.738 265.592 173.399 266.214 174.249C266.836 175.09 267.147 176.08 267.147 177.218C267.147 178.313 266.805 179.22 266.122 179.938C265.438 180.648 264.519 181.156 263.362 181.462V181.673C264.16 181.716 264.878 181.944 265.517 182.356C266.157 182.759 266.665 183.306 267.041 183.998C267.418 184.69 267.606 185.492 267.606 186.403C267.606 187.638 267.252 188.706 266.542 189.609C265.833 190.502 264.856 191.19 263.612 191.672C262.377 192.153 260.962 192.394 259.368 192.394C257.818 192.394 256.429 192.162 255.203 191.698C253.985 191.225 253.018 190.546 252.299 189.661C251.581 188.777 251.2 187.712 251.156 186.468ZM285.213 179.938V183.841H274.465V179.938H285.213ZM275.937 171.818V192H271.351V171.818H275.937ZM288.327 171.818V192H283.755V171.818H288.327ZM298.947 192.407C297.668 192.407 296.516 192.18 295.491 191.724C294.475 191.26 293.669 190.577 293.074 189.674C292.487 188.772 292.193 187.66 292.193 186.337C292.193 185.198 292.403 184.257 292.824 183.512C293.244 182.768 293.818 182.172 294.545 181.725C295.272 181.278 296.091 180.941 297.002 180.713C297.922 180.477 298.872 180.306 299.853 180.201C301.036 180.078 301.995 179.969 302.731 179.873C303.467 179.767 304.001 179.61 304.334 179.4C304.675 179.181 304.846 178.843 304.846 178.388V178.309C304.846 177.319 304.553 176.553 303.966 176.01C303.379 175.467 302.534 175.195 301.43 175.195C300.265 175.195 299.341 175.449 298.658 175.957C297.983 176.465 297.528 177.065 297.291 177.757L292.85 177.126C293.201 175.9 293.779 174.875 294.585 174.052C295.39 173.22 296.376 172.598 297.541 172.186C298.706 171.766 299.993 171.555 301.404 171.555C302.376 171.555 303.344 171.669 304.308 171.897C305.271 172.125 306.151 172.501 306.949 173.027C307.746 173.544 308.385 174.249 308.867 175.142C309.357 176.036 309.603 177.153 309.603 178.493V192H305.03V189.228H304.873C304.583 189.788 304.176 190.314 303.651 190.804C303.134 191.286 302.481 191.676 301.693 191.974C300.913 192.263 299.998 192.407 298.947 192.407ZM300.182 188.912C301.137 188.912 301.964 188.724 302.665 188.347C303.366 187.962 303.905 187.454 304.281 186.823C304.667 186.192 304.859 185.505 304.859 184.76V182.382C304.71 182.505 304.456 182.619 304.097 182.724C303.747 182.829 303.353 182.921 302.915 183C302.477 183.078 302.043 183.149 301.614 183.21C301.185 183.271 300.813 183.324 300.497 183.368C299.788 183.464 299.153 183.622 298.592 183.841C298.031 184.06 297.589 184.366 297.265 184.76C296.941 185.146 296.779 185.645 296.779 186.258C296.779 187.134 297.098 187.795 297.738 188.242C298.377 188.689 299.192 188.912 300.182 188.912ZM328.247 179.938V183.841H317.499V179.938H328.247ZM318.971 171.818V192H314.385V171.818H318.971ZM331.361 171.818V192H326.789V171.818H331.361ZM340.759 185.562L348.84 171.818H353.727V192H349.129V178.243L341.074 192H336.173V171.818H340.759V185.562ZM367.547 192.394C365.523 192.394 363.776 191.974 362.304 191.133C360.841 190.283 359.716 189.083 358.927 187.533C358.139 185.973 357.745 184.138 357.745 182.027C357.745 179.951 358.139 178.129 358.927 176.561C359.724 174.985 360.837 173.758 362.265 172.882C363.692 171.998 365.37 171.555 367.297 171.555C368.541 171.555 369.714 171.757 370.818 172.16C371.931 172.554 372.912 173.167 373.761 173.999C374.62 174.831 375.294 175.891 375.785 177.179C376.275 178.458 376.521 179.982 376.521 181.751V183.21H359.978V180.004H371.961C371.953 179.093 371.755 178.283 371.37 177.573C370.985 176.855 370.446 176.29 369.754 175.878C369.071 175.467 368.274 175.261 367.363 175.261C366.39 175.261 365.536 175.497 364.8 175.97C364.065 176.434 363.491 177.048 363.079 177.81C362.676 178.563 362.47 179.391 362.462 180.293V183.092C362.462 184.265 362.676 185.273 363.105 186.114C363.535 186.946 364.135 187.585 364.906 188.032C365.676 188.47 366.579 188.689 367.612 188.689C368.304 188.689 368.931 188.593 369.491 188.4C370.052 188.198 370.538 187.905 370.95 187.52C371.361 187.134 371.672 186.657 371.882 186.087L376.324 186.587C376.043 187.76 375.509 188.785 374.721 189.661C373.941 190.528 372.942 191.203 371.725 191.685C370.507 192.158 369.114 192.394 367.547 192.394Z" fill="white"/>
<rect y="249" width="439.102" height="96" rx="25" fill="url(#paint0_linear_84_70)"/>
<path d="M143.565 283.091H148.4V301.433H148.65L161.303 283.091H165.679V310H160.804V291.671H160.581L147.888 310H143.565V283.091ZM179.583 310.394C177.568 310.394 175.838 309.952 174.393 309.067C172.957 308.182 171.848 306.96 171.069 305.401C170.298 303.833 169.913 302.029 169.913 299.988C169.913 297.938 170.307 296.129 171.095 294.561C171.884 292.985 172.996 291.758 174.433 290.882C175.878 289.998 177.586 289.555 179.557 289.555C181.195 289.555 182.645 289.858 183.906 290.462C185.176 291.058 186.188 291.903 186.941 292.998C187.694 294.084 188.124 295.354 188.229 296.808H183.683C183.499 295.836 183.061 295.026 182.369 294.377C181.685 293.721 180.77 293.392 179.623 293.392C178.65 293.392 177.796 293.655 177.06 294.18C176.325 294.697 175.751 295.442 175.339 296.414C174.936 297.386 174.735 298.551 174.735 299.909C174.735 301.284 174.936 302.467 175.339 303.457C175.742 304.438 176.307 305.195 177.034 305.73C177.77 306.255 178.633 306.518 179.623 306.518C180.323 306.518 180.95 306.387 181.501 306.124C182.062 305.852 182.531 305.463 182.907 304.955C183.284 304.446 183.542 303.829 183.683 303.102H188.229C188.115 304.53 187.694 305.795 186.967 306.899C186.24 307.994 185.25 308.853 183.998 309.474C182.745 310.088 181.274 310.394 179.583 310.394ZM190.669 293.721V289.818H208.328V293.721H201.798V310H197.199V293.721H190.669ZM220.088 310.394C218.117 310.394 216.409 309.961 214.964 309.093C213.518 308.226 212.397 307.013 211.6 305.454C210.812 303.895 210.418 302.073 210.418 299.988C210.418 297.903 210.812 296.077 211.6 294.509C212.397 292.941 213.518 291.723 214.964 290.856C216.409 289.989 218.117 289.555 220.088 289.555C222.059 289.555 223.767 289.989 225.212 290.856C226.658 291.723 227.774 292.941 228.563 294.509C229.36 296.077 229.758 297.903 229.758 299.988C229.758 302.073 229.36 303.895 228.563 305.454C227.774 307.013 226.658 308.226 225.212 309.093C223.767 309.961 222.059 310.394 220.088 310.394ZM220.114 306.584C221.183 306.584 222.076 306.29 222.795 305.703C223.513 305.108 224.047 304.311 224.398 303.312C224.757 302.314 224.936 301.201 224.936 299.975C224.936 298.74 224.757 297.623 224.398 296.624C224.047 295.617 223.513 294.815 222.795 294.22C222.076 293.624 221.183 293.326 220.114 293.326C219.019 293.326 218.108 293.624 217.381 294.22C216.663 294.815 216.124 295.617 215.765 296.624C215.415 297.623 215.24 298.74 215.24 299.975C215.24 301.201 215.415 302.314 215.765 303.312C216.124 304.311 216.663 305.108 217.381 305.703C218.108 306.29 219.019 306.584 220.114 306.584ZM233.795 317.568V289.818H238.473V293.156H238.749C238.994 292.665 239.34 292.144 239.787 291.592C240.234 291.031 240.838 290.554 241.6 290.16C242.362 289.757 243.335 289.555 244.517 289.555C246.076 289.555 247.482 289.954 248.735 290.751C249.996 291.539 250.995 292.709 251.73 294.259C252.475 295.801 252.847 297.693 252.847 299.935C252.847 302.152 252.484 304.035 251.757 305.585C251.03 307.136 250.04 308.318 248.787 309.133C247.535 309.947 246.116 310.355 244.53 310.355C243.374 310.355 242.415 310.162 241.653 309.777C240.891 309.391 240.277 308.927 239.813 308.384C239.358 307.832 239.003 307.311 238.749 306.82H238.552V317.568H233.795ZM238.46 299.909C238.46 301.214 238.644 302.357 239.012 303.338C239.388 304.319 239.927 305.086 240.628 305.638C241.337 306.181 242.196 306.452 243.203 306.452C244.254 306.452 245.135 306.172 245.844 305.612C246.554 305.042 247.088 304.267 247.447 303.286C247.815 302.296 247.999 301.17 247.999 299.909C247.999 298.656 247.819 297.544 247.46 296.572C247.101 295.599 246.567 294.837 245.857 294.286C245.148 293.734 244.263 293.458 243.203 293.458C242.187 293.458 241.324 293.725 240.615 294.259C239.905 294.794 239.366 295.542 238.999 296.506C238.639 297.47 238.46 298.604 238.46 299.909ZM261.506 303.562L269.587 289.818H274.474V310H269.876V296.243L261.821 310H256.92V289.818H261.506V303.562ZM291.289 310V293.681H286.98C285.885 293.681 285.044 293.935 284.457 294.443C283.87 294.951 283.581 295.582 283.59 296.335C283.581 297.089 283.857 297.71 284.418 298.201C284.978 298.692 285.78 298.937 286.822 298.937H292.787V302.406H286.822C285.21 302.406 283.818 302.152 282.644 301.643C281.47 301.135 280.568 300.417 279.937 299.489C279.306 298.56 278.991 297.474 278.991 296.23C278.991 294.934 279.311 293.808 279.95 292.853C280.598 291.89 281.518 291.145 282.709 290.62C283.909 290.085 285.333 289.818 286.98 289.818H295.744V310H291.289ZM278.255 310L283.892 299.646H288.583L282.933 310H278.255Z" fill="white"/>
<rect x="1.5" y="2.5" width="204.429" height="93" rx="23.5" stroke="#1F1F1F" stroke-width="3"/>
<path d="M71.0267 52V25.0909H88.5281V29.1772H75.9013V36.4826H87.6215V40.5689H75.9013V47.9137H88.6332V52H71.0267ZM110.806 25.0909V29.1772H98.3759V52H93.5013V25.0909H110.806ZM131.986 36.8505V40.858H120.568V36.8505H131.986ZM113.079 43.315H117.98C118.137 44.9793 118.667 46.2406 119.569 47.0991C120.48 47.9575 121.864 48.3867 123.721 48.3867C125.158 48.3867 126.323 48.0276 127.216 47.3093C128.11 46.5823 128.763 45.5749 129.174 44.2873C129.586 42.9996 129.792 41.5018 129.792 39.7937V37.3498C129.792 35.5541 129.56 34.0168 129.095 32.7379C128.631 31.459 127.939 30.4824 127.019 29.8079C126.1 29.1246 124.961 28.783 123.603 28.783C122.316 28.783 121.278 28.9889 120.489 29.4006C119.701 29.8123 119.11 30.4079 118.715 31.1875C118.321 31.9583 118.067 32.8825 117.953 33.9599H113.052C113.228 32.208 113.727 30.6357 114.55 29.2429C115.374 27.8501 116.534 26.7508 118.032 25.945C119.53 25.1303 121.387 24.723 123.603 24.723C125.854 24.723 127.803 25.2398 129.45 26.2734C131.106 27.3071 132.385 28.7699 133.287 30.6619C134.198 32.554 134.653 34.7789 134.653 37.3366V39.8331C134.653 42.3909 134.207 44.6114 133.313 46.4947C132.428 48.3692 131.171 49.8189 129.542 50.8438C127.913 51.8598 125.973 52.3679 123.721 52.3679C121.54 52.3679 119.683 51.9825 118.15 51.2116C116.618 50.4321 115.426 49.3634 114.577 48.0057C113.727 46.6392 113.228 45.0756 113.079 43.315Z" fill="#1F1F1F"/>
<path d="M58.2259 65.9091V79H56.2443V67.8906H56.1676L53.0355 69.9361V68.044L56.3018 65.9091H58.2259ZM66.3246 79.2173C65.3146 79.2131 64.4517 78.9467 63.7358 78.4183C63.0199 77.8899 62.4723 77.1207 62.093 76.1108C61.7138 75.1009 61.5241 73.8842 61.5241 72.4609C61.5241 71.0419 61.7138 69.8295 62.093 68.8239C62.4766 67.8182 63.0263 67.0511 63.7422 66.5227C64.4624 65.9943 65.3232 65.7301 66.3246 65.7301C67.326 65.7301 68.1847 65.9964 68.9006 66.5291C69.6165 67.0575 70.1641 67.8246 70.5433 68.8303C70.9268 69.8317 71.1186 71.0419 71.1186 72.4609C71.1186 73.8885 70.929 75.1072 70.5497 76.1172C70.1705 77.1229 69.6229 77.892 68.907 78.4247C68.1911 78.9531 67.3303 79.2173 66.3246 79.2173ZM66.3246 77.5107C67.2109 77.5107 67.9034 77.0781 68.402 76.2131C68.9048 75.348 69.1562 74.0973 69.1562 72.4609C69.1562 71.3743 69.0412 70.456 68.8111 69.706C68.5852 68.9517 68.2592 68.3807 67.8331 67.9929C67.4112 67.6009 66.9084 67.4048 66.3246 67.4048C65.4425 67.4048 64.75 67.8395 64.2472 68.7088C63.7443 69.5781 63.4908 70.8288 63.4865 72.4609C63.4865 73.5518 63.5994 74.4744 63.8253 75.2287C64.0554 75.9787 64.3814 76.5476 64.8033 76.9354C65.2251 77.3189 65.7322 77.5107 66.3246 77.5107ZM79.1966 71.6236V73.2855H73.3926V71.6236H79.1966ZM86.6848 65.9091V79H84.7033V67.8906H84.6266L81.4945 69.9361V68.044L84.7608 65.9091H86.6848ZM95.1926 65.9091V79H93.2111V67.8906H93.1344L90.0023 69.9361V68.044L93.2686 65.9091H95.1926ZM103.523 79V69.1818H105.434V73.2983H106.355L109.596 69.1818H111.961L108.157 73.9567L112.005 79H109.634L106.674 75.0753H105.434V79H103.523ZM112.716 79L112.71 77.3445H113.062C113.334 77.3445 113.562 77.2869 113.746 77.1719C113.933 77.0526 114.086 76.8523 114.206 76.571C114.325 76.2898 114.417 75.902 114.481 75.4077C114.545 74.9091 114.591 74.2827 114.621 73.5284L114.794 69.1818H121.646V79H119.773V70.831H116.564L116.411 74.1676C116.373 74.9773 116.29 75.6847 116.162 76.2898C116.038 76.8949 115.857 77.3999 115.618 77.8047C115.38 78.2053 115.073 78.5057 114.698 78.706C114.323 78.902 113.867 79 113.33 79H112.716ZM127.052 79.2173C126.43 79.2173 125.868 79.1023 125.365 78.8722C124.862 78.6378 124.463 78.299 124.169 77.8558C123.88 77.4126 123.735 76.8693 123.735 76.2259C123.735 75.6719 123.841 75.2159 124.054 74.858C124.267 74.5 124.555 74.2166 124.917 74.0078C125.279 73.799 125.684 73.6413 126.132 73.5348C126.579 73.4283 127.035 73.3473 127.5 73.2919C128.088 73.2237 128.565 73.1683 128.931 73.1257C129.298 73.0788 129.564 73.0043 129.73 72.902C129.897 72.7997 129.98 72.6335 129.98 72.4034V72.3587C129.98 71.8004 129.822 71.3679 129.507 71.0611C129.196 70.7543 128.731 70.6009 128.113 70.6009C127.47 70.6009 126.963 70.7436 126.592 71.0291C126.225 71.3104 125.972 71.6236 125.831 71.9688L124.035 71.5597C124.248 70.9631 124.559 70.4815 124.968 70.1151C125.382 69.7443 125.857 69.4759 126.394 69.3097C126.931 69.1392 127.495 69.054 128.088 69.054C128.48 69.054 128.895 69.1009 129.334 69.1946C129.777 69.2841 130.191 69.4503 130.574 69.6932C130.962 69.9361 131.279 70.2834 131.527 70.7351C131.774 71.1825 131.897 71.7642 131.897 72.4801V79H130.031V77.6577H129.954C129.831 77.9048 129.645 78.1477 129.398 78.3864C129.151 78.625 128.833 78.8232 128.446 78.9808C128.058 79.1385 127.593 79.2173 127.052 79.2173ZM127.468 77.6832C127.996 77.6832 128.448 77.5788 128.823 77.37C129.202 77.1612 129.49 76.8885 129.686 76.5518C129.886 76.2109 129.986 75.8466 129.986 75.4588V74.1932C129.918 74.2614 129.786 74.3253 129.59 74.3849C129.398 74.4403 129.179 74.4893 128.931 74.532C128.684 74.5703 128.444 74.6065 128.209 74.6406C127.975 74.6705 127.779 74.696 127.621 74.7173C127.25 74.7642 126.912 74.843 126.605 74.9538C126.302 75.0646 126.059 75.2244 125.876 75.4332C125.697 75.6378 125.608 75.9105 125.608 76.2514C125.608 76.7244 125.782 77.0824 126.132 77.3253C126.481 77.5639 126.926 77.6832 127.468 77.6832ZM138.579 79.1982C137.628 79.1982 136.81 78.983 136.124 78.5526C135.442 78.1179 134.918 77.5192 134.552 76.7564C134.185 75.9936 134.002 75.12 134.002 74.1357C134.002 73.1385 134.189 72.2585 134.564 71.4957C134.939 70.7287 135.468 70.13 136.15 69.6996C136.831 69.2692 137.635 69.054 138.559 69.054C139.305 69.054 139.97 69.1925 140.554 69.4695C141.138 69.7422 141.608 70.1257 141.966 70.62C142.329 71.1143 142.544 71.6918 142.612 72.3523H140.752C140.65 71.892 140.415 71.4957 140.049 71.1634C139.687 70.831 139.201 70.6648 138.591 70.6648C138.059 70.6648 137.592 70.8054 137.192 71.0866C136.795 71.3636 136.486 71.7599 136.265 72.2756C136.043 72.7869 135.932 73.392 135.932 74.0909C135.932 74.8068 136.041 75.4247 136.258 75.9446C136.476 76.4645 136.782 76.8672 137.179 77.1527C137.579 77.4382 138.05 77.581 138.591 77.581C138.954 77.581 139.282 77.5149 139.576 77.3828C139.874 77.2464 140.123 77.0526 140.324 76.8011C140.528 76.5497 140.671 76.2472 140.752 75.8935H142.612C142.544 76.5284 142.337 77.0952 141.992 77.5938C141.647 78.0923 141.184 78.4844 140.605 78.7699C140.03 79.0554 139.354 79.1982 138.579 79.1982ZM148.792 79.1982C147.841 79.1982 147.023 78.983 146.337 78.5526C145.655 78.1179 145.131 77.5192 144.765 76.7564C144.398 75.9936 144.215 75.12 144.215 74.1357C144.215 73.1385 144.402 72.2585 144.777 71.4957C145.152 70.7287 145.681 70.13 146.363 69.6996C147.044 69.2692 147.848 69.054 148.772 69.054C149.518 69.054 150.183 69.1925 150.767 69.4695C151.35 69.7422 151.821 70.1257 152.179 70.62C152.542 71.1143 152.757 71.6918 152.825 72.3523H150.965C150.863 71.892 150.628 71.4957 150.262 71.1634C149.9 70.831 149.414 70.6648 148.804 70.6648C148.272 70.6648 147.805 70.8054 147.404 71.0866C147.008 71.3636 146.699 71.7599 146.478 72.2756C146.256 72.7869 146.145 73.392 146.145 74.0909C146.145 74.8068 146.254 75.4247 146.471 75.9446C146.689 76.4645 146.995 76.8672 147.392 77.1527C147.792 77.4382 148.263 77.581 148.804 77.581C149.167 77.581 149.495 77.5149 149.789 77.3828C150.087 77.2464 150.336 77.0526 150.537 76.8011C150.741 76.5497 150.884 76.2472 150.965 75.8935H152.825C152.757 76.5284 152.55 77.0952 152.205 77.5938C151.86 78.0923 151.397 78.4844 150.818 78.7699C150.243 79.0554 149.567 79.1982 148.792 79.1982Z" fill="#515151"/>
<rect x="233.173" y="1.5" width="204.429" height="93" rx="23.5" stroke="#1F1F1F" stroke-width="3"/>
<path d="M322.699 38.5455C322.699 41.4448 322.156 43.9281 321.07 45.9954C319.992 48.0539 318.521 49.6306 316.655 50.7255C314.798 51.8204 312.691 52.3679 310.335 52.3679C307.979 52.3679 305.868 51.8204 304.002 50.7255C302.145 49.6218 300.673 48.0407 299.587 45.9822C298.51 43.915 297.971 41.4361 297.971 38.5455C297.971 35.6461 298.51 33.1671 299.587 31.1087C300.673 29.0414 302.145 27.4603 304.002 26.3654C305.868 25.2705 307.979 24.723 310.335 24.723C312.691 24.723 314.798 25.2705 316.655 26.3654C318.521 27.4603 319.992 29.0414 321.07 31.1087C322.156 33.1671 322.699 35.6461 322.699 38.5455ZM317.798 38.5455C317.798 36.5045 317.478 34.7833 316.839 33.3817C316.208 31.9715 315.332 30.9072 314.211 30.1889C313.09 29.4619 311.798 29.0984 310.335 29.0984C308.872 29.0984 307.58 29.4619 306.459 30.1889C305.338 30.9072 304.457 31.9715 303.818 33.3817C303.187 34.7833 302.872 36.5045 302.872 38.5455C302.872 40.5864 303.187 42.312 303.818 43.7223C304.457 45.1238 305.338 46.1881 306.459 46.9151C307.58 47.6334 308.872 47.9925 310.335 47.9925C311.798 47.9925 313.09 47.6334 314.211 46.9151C315.332 46.1881 316.208 45.1238 316.839 43.7223C317.478 42.312 317.798 40.5864 317.798 38.5455ZM344.612 25.0909V29.1772H332.182V52H327.307V25.0909H344.612ZM365.792 36.8505V40.858H354.374V36.8505H365.792ZM346.885 43.315H351.786C351.943 44.9793 352.473 46.2406 353.376 47.0991C354.287 47.9575 355.671 48.3867 357.528 48.3867C358.964 48.3867 360.129 48.0276 361.023 47.3093C361.916 46.5823 362.569 45.5749 362.98 44.2873C363.392 42.9996 363.598 41.5018 363.598 39.7937V37.3498C363.598 35.5541 363.366 34.0168 362.902 32.7379C362.437 31.459 361.745 30.4824 360.826 29.8079C359.906 29.1246 358.767 28.783 357.409 28.783C356.122 28.783 355.084 28.9889 354.295 29.4006C353.507 29.8123 352.916 30.4079 352.522 31.1875C352.127 31.9583 351.873 32.8825 351.759 33.9599H346.859C347.034 32.208 347.533 30.6357 348.356 29.2429C349.18 27.8501 350.34 26.7508 351.838 25.945C353.336 25.1303 355.193 24.723 357.409 24.723C359.661 24.723 361.61 25.2398 363.256 26.2734C364.912 27.3071 366.191 28.7699 367.093 30.6619C368.004 32.554 368.459 34.7789 368.459 37.3366V39.8331C368.459 42.3909 368.013 44.6114 367.119 46.4947C366.235 48.3692 364.978 49.8189 363.348 50.8438C361.719 51.8598 359.779 52.3679 357.528 52.3679C355.347 52.3679 353.489 51.9825 351.957 51.2116C350.424 50.4321 349.232 49.3634 348.383 48.0057C347.533 46.6392 347.034 45.0756 346.885 43.315Z" fill="#1F1F1F"/>
<path d="M306.336 65.7301C306.92 65.7344 307.495 65.8409 308.062 66.0497C308.628 66.2585 309.14 66.5994 309.596 67.0724C310.056 67.5455 310.422 68.1847 310.695 68.9901C310.972 69.7912 311.113 70.7884 311.117 71.9815C311.117 73.1278 311.002 74.1484 310.772 75.0433C310.542 75.9339 310.212 76.6861 309.781 77.2997C309.355 77.9134 308.837 78.38 308.228 78.6996C307.619 79.0192 306.932 79.179 306.17 79.179C305.39 79.179 304.697 79.0256 304.092 78.7188C303.487 78.4119 302.995 77.9879 302.616 77.4467C302.236 76.9013 302 76.2749 301.906 75.5675H303.856C303.984 76.13 304.244 76.5859 304.636 76.9354C305.032 77.2805 305.543 77.4531 306.17 77.4531C307.128 77.4531 307.876 77.0355 308.413 76.2003C308.95 75.3608 309.221 74.1889 309.225 72.6847H309.123C308.901 73.0511 308.624 73.3665 308.292 73.6307C307.964 73.8949 307.595 74.0994 307.186 74.2443C306.777 74.3892 306.34 74.4616 305.876 74.4616C305.121 74.4616 304.435 74.2763 303.817 73.9055C303.199 73.5348 302.707 73.0256 302.341 72.3778C301.974 71.7301 301.791 70.9908 301.791 70.1598C301.791 69.3331 301.979 68.5831 302.354 67.9098C302.733 67.2365 303.261 66.7038 303.939 66.3118C304.621 65.9155 305.42 65.7216 306.336 65.7301ZM306.342 67.392C305.844 67.392 305.394 67.5156 304.994 67.7628C304.597 68.0057 304.284 68.3359 304.054 68.7536C303.824 69.1669 303.709 69.6271 303.709 70.1342C303.709 70.6413 303.82 71.1016 304.041 71.5149C304.267 71.924 304.574 72.25 304.962 72.4929C305.354 72.7315 305.801 72.8509 306.304 72.8509C306.679 72.8509 307.028 72.7784 307.352 72.6335C307.676 72.4886 307.959 72.2884 308.202 72.0327C308.445 71.7727 308.635 71.4787 308.771 71.1506C308.908 70.8224 308.976 70.4773 308.976 70.1151C308.976 69.6335 308.861 69.1861 308.631 68.7727C308.405 68.3594 308.094 68.027 307.697 67.7756C307.301 67.5199 306.849 67.392 306.342 67.392ZM318.215 79V69.1818H320.127V73.2983H321.047L324.288 69.1818H326.653L322.85 73.9567L326.698 79H324.326L321.367 75.0753H320.127V79H318.215ZM327.409 79L327.402 77.3445H327.754C328.027 77.3445 328.255 77.2869 328.438 77.1719C328.625 77.0526 328.779 76.8523 328.898 76.571C329.017 76.2898 329.109 75.902 329.173 75.4077C329.237 74.9091 329.284 74.2827 329.314 73.5284L329.486 69.1818H336.339V79H334.466V70.831H331.257L331.103 74.1676C331.065 74.9773 330.982 75.6847 330.854 76.2898C330.731 76.8949 330.549 77.3999 330.311 77.8047C330.072 78.2053 329.765 78.5057 329.39 78.706C329.015 78.902 328.559 79 328.022 79H327.409ZM341.745 79.2173C341.122 79.2173 340.56 79.1023 340.057 78.8722C339.554 78.6378 339.156 78.299 338.862 77.8558C338.572 77.4126 338.427 76.8693 338.427 76.2259C338.427 75.6719 338.534 75.2159 338.747 74.858C338.96 74.5 339.247 74.2166 339.61 74.0078C339.972 73.799 340.377 73.6413 340.824 73.5348C341.272 73.4283 341.728 73.3473 342.192 73.2919C342.78 73.2237 343.257 73.1683 343.624 73.1257C343.99 73.0788 344.257 73.0043 344.423 72.902C344.589 72.7997 344.672 72.6335 344.672 72.4034V72.3587C344.672 71.8004 344.514 71.3679 344.199 71.0611C343.888 70.7543 343.424 70.6009 342.806 70.6009C342.162 70.6009 341.655 70.7436 341.284 71.0291C340.918 71.3104 340.664 71.6236 340.524 71.9688L338.728 71.5597C338.941 70.9631 339.252 70.4815 339.661 70.1151C340.074 69.7443 340.549 69.4759 341.086 69.3097C341.623 69.1392 342.188 69.054 342.78 69.054C343.172 69.054 343.588 69.1009 344.027 69.1946C344.47 69.2841 344.883 69.4503 345.267 69.6932C345.654 69.9361 345.972 70.2834 346.219 70.7351C346.466 71.1825 346.59 71.7642 346.59 72.4801V79H344.723V77.6577H344.647C344.523 77.9048 344.338 78.1477 344.09 78.3864C343.843 78.625 343.526 78.8232 343.138 78.9808C342.75 79.1385 342.286 79.2173 341.745 79.2173ZM342.16 77.6832C342.688 77.6832 343.14 77.5788 343.515 77.37C343.894 77.1612 344.182 76.8885 344.378 76.5518C344.578 76.2109 344.679 75.8466 344.679 75.4588V74.1932C344.61 74.2614 344.478 74.3253 344.282 74.3849C344.09 74.4403 343.871 74.4893 343.624 74.532C343.377 74.5703 343.136 74.6065 342.902 74.6406C342.667 74.6705 342.471 74.696 342.313 74.7173C341.943 74.7642 341.604 74.843 341.297 74.9538C340.995 75.0646 340.752 75.2244 340.568 75.4332C340.389 75.6378 340.3 75.9105 340.3 76.2514C340.3 76.7244 340.475 77.0824 340.824 77.3253C341.174 77.5639 341.619 77.6832 342.16 77.6832ZM353.271 79.1982C352.321 79.1982 351.503 78.983 350.816 78.5526C350.135 78.1179 349.611 77.5192 349.244 76.7564C348.878 75.9936 348.694 75.12 348.694 74.1357C348.694 73.1385 348.882 72.2585 349.257 71.4957C349.632 70.7287 350.16 70.13 350.842 69.6996C351.524 69.2692 352.327 69.054 353.252 69.054C353.998 69.054 354.662 69.1925 355.246 69.4695C355.83 69.7422 356.301 70.1257 356.659 70.62C357.021 71.1143 357.236 71.6918 357.304 72.3523H355.444C355.342 71.892 355.108 71.4957 354.741 71.1634C354.379 70.831 353.893 70.6648 353.284 70.6648C352.751 70.6648 352.285 70.8054 351.884 71.0866C351.488 71.3636 351.179 71.7599 350.957 72.2756C350.736 72.7869 350.625 73.392 350.625 74.0909C350.625 74.8068 350.733 75.4247 350.951 75.9446C351.168 76.4645 351.475 76.8672 351.871 77.1527C352.272 77.4382 352.743 77.581 353.284 77.581C353.646 77.581 353.974 77.5149 354.268 77.3828C354.566 77.2464 354.816 77.0526 355.016 76.8011C355.221 76.5497 355.363 76.2472 355.444 75.8935H357.304C357.236 76.5284 357.03 77.0952 356.684 77.5938C356.339 78.0923 355.877 78.4844 355.297 78.7699C354.722 79.0554 354.047 79.1982 353.271 79.1982ZM363.484 79.1982C362.534 79.1982 361.715 78.983 361.029 78.5526C360.348 78.1179 359.823 77.5192 359.457 76.7564C359.09 75.9936 358.907 75.12 358.907 74.1357C358.907 73.1385 359.095 72.2585 359.47 71.4957C359.845 70.7287 360.373 70.13 361.055 69.6996C361.737 69.2692 362.54 69.054 363.465 69.054C364.21 69.054 364.875 69.1925 365.459 69.4695C366.043 69.7422 366.514 70.1257 366.872 70.62C367.234 71.1143 367.449 71.6918 367.517 72.3523H365.657C365.555 71.892 365.321 71.4957 364.954 71.1634C364.592 70.831 364.106 70.6648 363.497 70.6648C362.964 70.6648 362.497 70.8054 362.097 71.0866C361.701 71.3636 361.392 71.7599 361.17 72.2756C360.948 72.7869 360.838 73.392 360.838 74.0909C360.838 74.8068 360.946 75.4247 361.164 75.9446C361.381 76.4645 361.688 76.8672 362.084 77.1527C362.485 77.4382 362.956 77.581 363.497 77.581C363.859 77.581 364.187 77.5149 364.481 77.3828C364.779 77.2464 365.029 77.0526 365.229 76.8011C365.434 76.5497 365.576 76.2472 365.657 75.8935H367.517C367.449 76.5284 367.242 77.0952 366.897 77.5938C366.552 78.0923 366.09 78.4844 365.51 78.7699C364.935 79.0554 364.259 79.1982 363.484 79.1982Z" fill="#515151"/>
<defs>
<linearGradient id="paint0_linear_84_70" x1="12.4568" y1="255.283" x2="115.391" y2="479.383" gradientUnits="userSpaceOnUse">
<stop stop-color="#2D4EFF"/>
<stop offset="1" stop-color="#3A5AFF"/>
</linearGradient>
</defs>
</svg>
